<?xml version="1.0" encoding="UTF-8" standalone="no"?>
<!-- Created with Inkscape (http://www.inkscape.org/) -->

<svg
   version="1.1"
   id="svg1"
   width="650"
   height="790"
   viewBox="0 0 650 790"
   sodipodi:docname="vector.svg"
   inkscape:version="1.4.2 (f4327f4, 2025-05-13)"
   inkscape:export-filename="logo_1024.png"
   inkscape:export-xdpi="151.23692"
   inkscape:export-ydpi="151.23692"
   xmlns:inkscape="http://www.inkscape.org/namespaces/inkscape"
   xmlns:sodipodi="http://sodipodi.sourceforge.net/DTD/sodipodi-0.dtd"
   xmlns="http://www.w3.org/2000/svg"
   xmlns:svg="http://www.w3.org/2000/svg">
  <defs
     id="defs1" />
  <sodipodi:namedview
     id="namedview1"
     pagecolor="#ffffff"
     bordercolor="#000000"
     borderopacity="0.25"
     inkscape:showpageshadow="2"
     inkscape:pageopacity="0.0"
     inkscape:pagecheckerboard="0"
     inkscape:deskcolor="#d1d1d1"
     showguides="true"
     inkscape:zoom="1.1255704"
     inkscape:cx="314.063"
     inkscape:cy="273.19483"
     inkscape:window-width="1920"
     inkscape:window-height="1017"
     inkscape:window-x="-8"
     inkscape:window-y="285"
     inkscape:window-maximized="1"
     inkscape:current-layer="svg1">
    <sodipodi:guide
       position="414.09258,445.35877"
       orientation="0,-1"
       id="guide5474"
       inkscape:locked="false" />
    <sodipodi:guide
       position="516.70782,436.17262"
       orientation="1,0"
       id="guide5475"
       inkscape:locked="false" />
    <sodipodi:guide
       position="414.09258,532.56715"
       orientation="0,-1"
       id="guide5482"
       inkscape:locked="false" />
    <sodipodi:guide
       position="661.61571,418.47533"
       orientation="0,-1"
       id="guide5485"
       inkscape:locked="false" />
    <sodipodi:guide
       position="715.53589,315.58157"
       orientation="0,-1"
       id="guide5488"
       inkscape:locked="false" />
    <sodipodi:guide
       position="619.32305,396.93887"
       orientation="1,0"
       id="guide5491"
       inkscape:locked="false" />
    <sodipodi:guide
       position="325,454"
       orientation="1,0"
       id="guide5492"
       inkscape:locked="false" />
    <sodipodi:guide
       position="77.12265,280.6835"
       orientation="0,-1"
       id="guide5493"
       inkscape:locked="false" />
  </sodipodi:namedview>
  <g
     id="g5491"
     transform="matrix(0.94856449,0,0,0.94856449,-164.57384,24.540178)"
     style="display:inline">
    <path
       id="path1"
       style="display:inline;fill:#ffffff;fill-opacity:1;stroke:#ffffff;stroke-width:40;stroke-linecap:square;stroke-linejoin:round;stroke-dasharray:none;stroke-opacity:1"
       d="m -447.6038,11.222329 c -14.10689,-0.407454 -93.50452,190.798891 -74.55664,315.222651 l -117.39648,277.11524 83.82226,76.73828 v 1.11133 h 1.21485 l 38.76367,35.48828 v 13.51562 h 14.76367 l 55.37695,50.69727 v -80.67969 l 126.19922,99.97461 126.19922,-99.97461 V 781.111 l 86.62891,-79.30859 a 76.775808,78.802144 0 0 0 8.75976,0.51367 76.775808,78.802144 0 0 0 76.77539,-78.79883 76.775808,78.802144 0 0 0 0,-0.0234 L 0.72237,603.56022 -116.67411,326.44498 C -97.72623,202.02122 -177.12386,10.814875 -191.23075,11.222329 -208.6231,11.724676 -225.22517,135.99963 -274.28544,287.81608 h -90.26367 C -413.60938,135.99963 -430.21146,11.724676 -447.6038,11.222329 Z"
       transform="translate(835.53842,-15.02798)" />
    <path
       style="fill:#bb833b;fill-opacity:1;stroke:none;stroke-width:0.464817;stroke-linecap:square;stroke-linejoin:round"
       d="M 389.92181,685.40438 516.12078,785.3796 642.31973,685.40438 V 578.15318 H 389.92181 Z"
       id="path5475"
       sodipodi:nodetypes="cccccc" />
    <path
       id="path5471"
       style="fill:#001722;fill-opacity:1;stroke:none;stroke-width:0.464817;stroke-linecap:square;stroke-linejoin:round"
       d="M 387.93296,-3.8046865 C 373.82607,-4.2121404 294.42923,186.99392 313.37711,311.41769 L 195.9815,588.53224 389.92181,766.08368 v -187.9305 c 44.03836,19.70137 43.09801,118.54857 126.19897,118.54857 83.10095,0 82.16059,-98.8472 126.19895,-118.54857 v 187.9305 L 836.26006,588.53224 718.86445,311.41769 C 737.81233,186.99392 658.41309,-4.2121404 644.3062,-3.8046865 626.91385,-3.3023391 610.31232,120.97218 561.25205,272.78863 H 470.98949 C 421.92922,120.97218 405.3253,-3.3023391 387.93296,-3.8046865 Z"
       sodipodi:nodetypes="sccccsccccsccs" />
    <rect
       style="fill:#bb833b;fill-opacity:1;stroke:none;stroke-width:0.65735;stroke-linecap:square;stroke-linejoin:round"
       id="rect5476"
       width="374.96939"
       height="30.047199"
       x="328.63608"
       y="352.15366" />
    <circle
       style="fill:#bb833b;fill-opacity:1;stroke:none;stroke-width:0.464817;stroke-linecap:square;stroke-linejoin:round"
       id="path5477"
       cx="516.12079"
       cy="365.81146"
       r="42.612392" />
    <circle
       style="fill:#ffffff;fill-opacity:1;stroke:none;stroke-width:0.464817;stroke-linecap:square;stroke-linejoin:round"
       id="path5478"
       cx="516.12079"
       cy="366.63092"
       r="22.671978" />
    <path
       id="rect5492"
       style="display:inline;fill:#4c727f;fill-opacity:1;stroke:none;stroke-width:1.7349;stroke-linecap:square;stroke-linejoin:round"
       d="m 737.70972,529.68734 a 76.775808,78.802144 0 0 0 -74.88179,61.40658 H 248.10511 v 34.13142 h 31.69775 v 41.15689 h 19.98778 v -41.15689 h 19.99047 v 90.16045 h 19.98777 v -90.16045 h 19.98775 v 58.53091 h 19.99049 v -58.53091 h 282.93893 a 76.775808,78.802144 0 0 0 75.02367,62.0641 76.775808,78.802144 0 0 0 76.77526,-78.79968 76.775808,78.802144 0 0 0 -76.77526,-78.80242 z m 0,34.9172 a 42.756633,43.885102 0 0 1 42.7557,43.88522 42.756633,43.885102 0 0 1 -42.7557,43.88249 42.756633,43.885102 0 0 1 -42.75569,-43.88249 42.756633,43.885102 0 0 1 42.75569,-43.88522 z" />
    <path
       style="fill:#bb843d;fill-opacity:1;stroke:none;stroke-width:0.464817;stroke-linecap:square;stroke-linejoin:round"
       d="m 457.56589,479.71765 c -10.19502,-19.21194 -17.11293,-41.27003 -64.73806,-39.06136 20.13831,48.23588 40.47206,19.88302 64.73806,39.06136 z"
       id="path5479"
       sodipodi:nodetypes="ccc" />
    <path
       style="fill:#bb843d;fill-opacity:1;stroke:none;stroke-width:0.464817;stroke-linecap:square;stroke-linejoin:round"
       d="m 574.67576,479.71761 c 10.19501,-19.21194 17.11293,-41.27002 64.73805,-39.06135 -20.13831,48.23587 -40.47206,19.88301 -64.73805,39.06135 z"
       id="path5480"
       sodipodi:nodetypes="ccc" />
    <path
       id="path5491"
       style="fill:#001722;fill-opacity:1;stroke:none;stroke-width:0.464817;stroke-linecap:square;stroke-linejoin:round"
       d="m 389.92181,578.15318 c 44.03836,19.70137 43.09798,118.54857 126.199,118.54857 83.10087,0 82.16055,-98.8472 126.19892,-118.54857 z" />
    <path
       id="path5481"
       style="display:inline;fill:#ffffff;fill-opacity:1;stroke:none;stroke-width:0.464817;stroke-linecap:square;stroke-linejoin:round"
       d="m 371.91541,391.28047 c -14.73041,-0.10011 -29.77828,0.58656 -44.30499,0.59571 0,68.29663 -10.52484,127.006 71.46687,166.88172 19.93339,9.69437 37.38758,38.84454 46.74063,62.19513 21.97712,54.86755 62.22735,54.85459 70.30189,54.85459 8.07453,0 48.32717,0.0129 70.3043,-54.85459 9.35304,-23.35059 26.80723,-52.50076 46.74062,-62.19513 81.99171,-39.87572 71.46686,-98.58509 71.46686,-166.88172 -58.10681,-0.0365 -124.55842,-10.90472 -145.63599,61.03494 28.3648,-42.29901 84.62809,-31.186 129.98933,-31.67524 -30.67575,30.67575 -51.0962,66.05755 -77.45267,66.05755 -41.98024,0 -50.14302,33.22619 -55.43348,56.39909 -8.85337,38.77902 3.97598,103.14211 -39.97897,103.14211 -43.95496,0 -31.1232,-64.36309 -39.97658,-103.14211 -5.29046,-23.1729 -13.45323,-56.39909 -55.43348,-56.39909 -26.35647,0 -46.77932,-35.3818 -77.45507,-66.05755 45.36124,0.48924 101.62693,-10.62377 129.99173,31.67524 -15.80817,-53.95473 -57.13976,-61.33037 -101.331,-61.63065 z" />
    <path
       style="fill:#bb833b;fill-opacity:1;stroke:none;stroke-width:0.464817;stroke-linecap:square;stroke-linejoin:round"
       d="m 479.85064,574.71935 c 0.45623,8.36777 1.0329,15.79226 1.62694,23.08078 h 69.30191 l 1.59396,-22.8087 z"
       id="path5483"
       sodipodi:nodetypes="ccccc" />
  </g>
</svg>
